<mxfile>
    <diagram id="_Ktf7mByj_RGui0FcMkf" name="Page-1">
        <mxGraphModel dx="842" dy="439" grid="1" gridSize="10" guides="1" tooltips="1" connect="1" arrows="1" fold="1" page="1" pageScale="1" pageWidth="827" pageHeight="1169" math="0" shadow="0">
            <root>
                <mxCell id="0"/>
                <mxCell id="1" parent="0"/>
                <mxCell id="2" value="&lt;font style=&quot;font-size: 18px&quot;&gt;RouterService&lt;/font&gt;" style="rounded=0;whiteSpace=wrap;html=1;" vertex="1" parent="1">
                    <mxGeometry y="40" width="890" height="60" as="geometry"/>
                </mxCell>
                <mxCell id="12" value="&lt;p style=&quot;line-height: 18px&quot;&gt;linkObj =&amp;nbsp;&lt;span&gt;{&amp;nbsp;'/characters': ItemCard,&amp;nbsp;&lt;/span&gt;&lt;/p&gt;&lt;p style=&quot;line-height: 18px&quot;&gt;'/comics': ComCard,&amp;nbsp;&lt;/p&gt;&lt;p style=&quot;line-height: 18px&quot;&gt;'/creators': CreatorCard&amp;nbsp;};&lt;/p&gt;" style="shape=process;whiteSpace=wrap;html=1;backgroundOutline=1;strokeColor=#FF3333;" vertex="1" parent="1">
                    <mxGeometry y="120" width="240" height="90" as="geometry"/>
                </mxCell>
                <mxCell id="13" value="" style="rounded=0;whiteSpace=wrap;html=1;strokeColor=#FF3333;fillColor=#FFCCE6;" vertex="1" parent="1">
                    <mxGeometry y="250" width="730" height="160" as="geometry"/>
                </mxCell>
                <mxCell id="14" value="&lt;font style=&quot;font-size: 22px&quot;&gt;&lt;b&gt;UI&lt;/b&gt;&lt;/font&gt;" style="text;html=1;align=center;verticalAlign=middle;whiteSpace=wrap;rounded=0;fillColor=#a20025;strokeColor=#6F0000;fontColor=#ffffff;" vertex="1" parent="1">
                    <mxGeometry x="414" y="210" width="60" height="20" as="geometry"/>
                </mxCell>
                <mxCell id="17" value="" style="rounded=0;whiteSpace=wrap;html=1;strokeColor=#6F0000;fillColor=#a20025;fontColor=#ffffff;gradientDirection=east;gradientColor=#FFB366;" vertex="1" parent="1">
                    <mxGeometry x="15" y="260" width="225" height="140" as="geometry"/>
                </mxCell>
                <mxCell id="18" value="characters" style="text;html=1;strokeColor=none;fillColor=none;align=center;verticalAlign=middle;whiteSpace=wrap;rounded=0;labelBackgroundColor=#ffffff;fontColor=#CC0000;" vertex="1" parent="1">
                    <mxGeometry x="15" y="270" width="75" height="20" as="geometry"/>
                </mxCell>
                <mxCell id="22" value="comics" style="text;html=1;strokeColor=none;fillColor=none;align=center;verticalAlign=middle;whiteSpace=wrap;rounded=0;labelBackgroundColor=#ffffff;fontColor=#CC0000;" vertex="1" parent="1">
                    <mxGeometry x="90" y="270" width="75" height="20" as="geometry"/>
                </mxCell>
                <mxCell id="23" value="creators" style="text;html=1;strokeColor=none;fillColor=none;align=center;verticalAlign=middle;whiteSpace=wrap;rounded=0;labelBackgroundColor=#ffffff;fontColor=#CC0000;" vertex="1" parent="1">
                    <mxGeometry x="165" y="270" width="75" height="20" as="geometry"/>
                </mxCell>
                <mxCell id="26" value="&lt;font color=&quot;#000000&quot; style=&quot;font-size: 16px&quot;&gt;/&lt;/font&gt;" style="rounded=1;whiteSpace=wrap;html=1;labelBackgroundColor=#ffffff;strokeColor=#FF3333;fillColor=#FFFFCC;gradientColor=none;fontColor=#CC0000;" vertex="1" parent="1">
                    <mxGeometry x="90" y="420" width="55" height="20" as="geometry"/>
                </mxCell>
                <mxCell id="28" value="" style="endArrow=classic;html=1;fontColor=#CC0000;exitX=0.75;exitY=1;exitDx=0;exitDy=0;entryX=0;entryY=0;entryDx=0;entryDy=0;" edge="1" parent="1" source="18" target="36">
                    <mxGeometry width="50" height="50" relative="1" as="geometry">
                        <mxPoint x="290" y="200" as="sourcePoint"/>
                        <mxPoint x="240" y="330" as="targetPoint"/>
                    </mxGeometry>
                </mxCell>
                <mxCell id="36" value="click" style="ellipse;whiteSpace=wrap;html=1;labelBackgroundColor=none;strokeColor=#005700;fillColor=#008a00;fontColor=#000000;" vertex="1" parent="1">
                    <mxGeometry x="160" y="320" width="70" height="40" as="geometry"/>
                </mxCell>
                <mxCell id="38" value="" style="rounded=0;whiteSpace=wrap;html=1;strokeColor=#6F0000;fillColor=#a20025;fontColor=#ffffff;gradientDirection=east;gradientColor=#FFB366;" vertex="1" parent="1">
                    <mxGeometry x="340" y="260" width="225" height="140" as="geometry"/>
                </mxCell>
                <mxCell id="39" value="" style="rounded=0;whiteSpace=wrap;html=1;labelBackgroundColor=none;strokeColor=#003300;fillColor=#FFFFCC;gradientColor=none;fontColor=#000000;" vertex="1" parent="1">
                    <mxGeometry x="414" y="320" width="60" height="70" as="geometry"/>
                </mxCell>
                <mxCell id="40" value="" style="rounded=0;whiteSpace=wrap;html=1;labelBackgroundColor=none;strokeColor=#006EAF;fillColor=#1ba1e2;fontColor=#ffffff;" vertex="1" parent="1">
                    <mxGeometry x="424" y="330" width="40" height="20" as="geometry"/>
                </mxCell>
                <mxCell id="42" value="" style="shape=link;html=1;fontColor=#000000;strokeColor=#0000FF;" edge="1" parent="1">
                    <mxGeometry width="100" relative="1" as="geometry">
                        <mxPoint x="429" y="369.5" as="sourcePoint"/>
                        <mxPoint x="459" y="369.5" as="targetPoint"/>
                    </mxGeometry>
                </mxCell>
                <mxCell id="43" value="" style="shape=link;html=1;fontColor=#000000;strokeColor=#0000FF;" edge="1" parent="1">
                    <mxGeometry width="100" relative="1" as="geometry">
                        <mxPoint x="429" y="379.5" as="sourcePoint"/>
                        <mxPoint x="459" y="379.5" as="targetPoint"/>
                    </mxGeometry>
                </mxCell>
                <mxCell id="44" value="random character" style="text;html=1;strokeColor=none;fillColor=none;align=center;verticalAlign=middle;whiteSpace=wrap;rounded=0;labelBackgroundColor=#ffffff;fontColor=#CC0000;" vertex="1" parent="1">
                    <mxGeometry x="378.5" y="300" width="131" height="20" as="geometry"/>
                </mxCell>
                <mxCell id="45" value="characters" style="text;html=1;strokeColor=none;fillColor=none;align=center;verticalAlign=middle;whiteSpace=wrap;rounded=0;labelBackgroundColor=#ffffff;fontColor=#CC0000;" vertex="1" parent="1">
                    <mxGeometry x="340" y="270" width="75" height="20" as="geometry"/>
                </mxCell>
                <mxCell id="46" value="comics" style="text;html=1;strokeColor=none;fillColor=none;align=center;verticalAlign=middle;whiteSpace=wrap;rounded=0;labelBackgroundColor=#ffffff;fontColor=#CC0000;" vertex="1" parent="1">
                    <mxGeometry x="415" y="270" width="75" height="20" as="geometry"/>
                </mxCell>
                <mxCell id="47" value="creators" style="text;html=1;strokeColor=none;fillColor=none;align=center;verticalAlign=middle;whiteSpace=wrap;rounded=0;labelBackgroundColor=#ffffff;fontColor=#CC0000;" vertex="1" parent="1">
                    <mxGeometry x="490" y="270" width="75" height="20" as="geometry"/>
                </mxCell>
                <mxCell id="51" value="&lt;font color=&quot;#000000&quot; style=&quot;font-size: 16px&quot;&gt;/characters&lt;/font&gt;" style="rounded=1;whiteSpace=wrap;html=1;labelBackgroundColor=#ffffff;strokeColor=#FF3333;fillColor=#FFFFCC;gradientColor=none;fontColor=#CC0000;" vertex="1" parent="1">
                    <mxGeometry x="361.25" y="420" width="182.5" height="20" as="geometry"/>
                </mxCell>
            </root>
        </mxGraphModel>
    </diagram>
</mxfile>